<svg xmlns="http://www.w3.org/2000/svg"  viewBox="0 0 48 48" width="48px" height="48px" baseProfile="basic"><linearGradient id="pKXgiUd16Rrxtp6fLaLXIa" x1="12.313" x2="57.894" y1="13.345" y2="39.661" gradientUnits="userSpaceOnUse"><stop offset="0" stop-color="#0d0d0d" stop-opacity="0"/><stop offset="1" stop-color="#0d0d0d" stop-opacity=".8"/></linearGradient><path fill="url(#pKXgiUd16Rrxtp6fLaLXIa)" d="M24,44l12.017-3.433c1.194-0.341,2.055-1.383,2.164-2.621L41,6H24V44z"/><linearGradient id="pKXgiUd16Rrxtp6fLaLXIb" x1="-1.469" x2="47.381" y1="4.531" y2="53.381" gradientUnits="userSpaceOnUse"><stop offset="0" stop-color="#0d0d0d" stop-opacity="0"/><stop offset="1" stop-color="#0d0d0d" stop-opacity=".8"/></linearGradient><path fill="url(#pKXgiUd16Rrxtp6fLaLXIb)" d="M24,6H10.276C8.515,6,7.133,7.51,7.288,9.264L10,40l14,4V6z"/><linearGradient id="pKXgiUd16Rrxtp6fLaLXIc" x1="21.336" x2="34.138" y1="8.736" y2="21.538" gradientUnits="userSpaceOnUse"><stop offset="0" stop-color="#0d0d0d" stop-opacity="0"/><stop offset="1" stop-color="#0d0d0d" stop-opacity=".8"/></linearGradient><polygon fill="url(#pKXgiUd16Rrxtp6fLaLXIc)" points="32.9,18 33.2,14 24,14 24,18"/><linearGradient id="pKXgiUd16Rrxtp6fLaLXId" x1="16.664" x2="35.916" y1="17.414" y2="36.666" gradientUnits="userSpaceOnUse"><stop offset="0" stop-color="#0d0d0d" stop-opacity="0"/><stop offset="1" stop-color="#0d0d0d" stop-opacity=".8"/></linearGradient><polygon fill="url(#pKXgiUd16Rrxtp6fLaLXId)" points="32.6,22 24,22 24,26 28.4,26 28.1,30.5 24,31.9 24,36.1 31.9,33.5"/><g><linearGradient id="pKXgiUd16Rrxtp6fLaLXIe" x1="7.867" x2="28.805" y1="8.067" y2="29.005" gradientUnits="userSpaceOnUse"><stop offset="0" stop-color="#0d0d0d" stop-opacity="0"/><stop offset="1" stop-color="#0d0d0d" stop-opacity=".8"/></linearGradient><polygon fill="url(#pKXgiUd16Rrxtp6fLaLXIe)" points="24,22 19.4,22 19.1,18 24,18 24,14 14.9,14 15.6,26 24,26"/><linearGradient id="pKXgiUd16Rrxtp6fLaLXIf" x1="10.486" x2="26.76" y1="23.136" y2="39.41" gradientUnits="userSpaceOnUse"><stop offset="0" stop-color="#0d0d0d" stop-opacity="0"/><stop offset="1" stop-color="#0d0d0d" stop-opacity=".8"/></linearGradient><polygon fill="url(#pKXgiUd16Rrxtp6fLaLXIf)" points="24,31.9 19.9,30.5 19.7,28 15.7,28 16.1,33.5 24,36.1"/></g></svg>